<svg width="333" height="104" viewBox="0 0 333 104" fill="none" xmlns="http://www.w3.org/2000/svg">
<g clip-path="url(#clip0_1336_20)">
<path d="M252.615 59.3934L261.076 48.1934L286.462 71.9934H266.718L252.615 59.3934Z" fill="url(#paint0_linear_1336_20)"/>
<path d="M237.397 46.6408L217.064 27.6433L236.799 27.0498L246.966 36.5486C243.3 39.6208 241.252 41.9074 237.397 46.6408Z" fill="#F1600A"/>
<path d="M255.434 58.6974C278.871 28.6002 306.205 0.593475 333 0.593475C307.615 -2.1949 270.947 22.9994 248.383 54.4965C219.113 95.3533 172.228 102.753 149.663 101.393C206.074 111.194 246.442 70.2455 255.434 58.6974Z" fill="url(#paint1_linear_1336_20)"/>
<path d="M255.434 58.6974C278.871 28.6002 306.205 0.593475 333 0.593475C307.615 -2.1949 270.947 22.9994 248.383 54.4965C219.113 95.3533 172.228 102.753 149.663 101.393C206.074 111.194 246.442 70.2455 255.434 58.6974Z" fill="#850152"/>
<path d="M149.663 101.394C172.228 102.753 219.113 95.3535 248.383 54.4967C270.947 22.9996 307.615 -2.1947 333 0.593673C286.46 -5.70347 248.622 39.9557 241.331 49.6054C224.408 71.2976 189.151 101.394 149.663 101.394Z" fill="url(#paint2_linear_1336_20)"/>
<path d="M20.429 71.3142C16.887 71.3142 13.8438 70.6208 11.2996 69.2342C8.7553 67.7979 6.78472 65.8665 5.38788 63.4399C4.04092 60.9636 3.36743 58.1408 3.36743 54.9714C3.36743 51.9505 4.1407 49.202 5.68721 46.7256C7.23371 44.2493 9.30407 42.2685 11.8982 40.7828C14.4924 39.2971 17.3859 38.5542 20.5787 38.5542C24.6694 38.5542 28.0618 39.7428 30.7557 42.1199C33.4497 44.4971 35.2706 47.7656 36.2184 51.9256L10.7009 60.8399L9.05462 56.7542L30.0074 49.1771L28.5108 50.1428C27.9121 48.5085 26.9144 47.0971 25.5175 45.9085C24.1207 44.6705 22.2998 44.0514 20.0548 44.0514C18.1591 44.0514 16.4629 44.522 14.9663 45.4628C13.4697 46.3542 12.2973 47.5922 11.4492 49.1771C10.6011 50.762 10.1771 52.5693 10.1771 54.5999C10.1771 56.7293 10.6261 58.6114 11.5241 60.2456C12.422 61.8305 13.6443 63.0934 15.1908 64.0342C16.7872 64.9256 18.5832 65.3714 20.5787 65.3714C21.9256 65.3714 23.2227 65.1236 24.4699 64.6285C25.767 64.1334 26.9643 63.4893 28.0618 62.6971L31.2796 67.8228C29.7331 68.8628 27.987 69.7048 26.0414 70.3485C24.1456 70.9922 22.2748 71.3142 20.429 71.3142ZM56.4143 71.4628L39.2031 39.8171H47.4346L59.1083 64.2571L54.8429 64.1085L65.5438 39.8171H73.3262L56.7885 71.4628H56.4143ZM77.3952 54.8971C77.3952 51.8265 78.1184 49.0534 79.5653 46.5771C81.0619 44.1008 83.1071 42.1448 85.7015 40.7085C88.2955 39.2722 91.239 38.5542 94.5316 38.5542C97.9237 38.5542 100.892 39.2722 103.437 40.7085C105.981 42.1448 107.951 44.1008 109.348 46.5771C110.745 49.0534 111.444 51.8265 111.444 54.8971C111.444 57.9677 110.745 60.7656 109.348 63.2914C107.951 65.7677 105.956 67.7236 103.362 69.1599C100.817 70.5962 97.8489 71.3142 94.4568 71.3142C91.1642 71.3142 88.2207 70.6456 85.6267 69.3085C83.0824 67.922 81.0619 66.015 79.5653 63.5885C78.1184 61.1122 77.3952 58.215 77.3952 54.8971ZM84.3545 54.9714C84.3545 56.9522 84.8035 58.7599 85.7015 60.3942C86.5995 61.9791 87.7968 63.242 89.2934 64.1828C90.8398 65.1236 92.5359 65.5942 94.3819 65.5942C96.3276 65.5942 98.0487 65.1236 99.5453 64.1828C101.092 63.242 102.289 61.9791 103.137 60.3942C103.985 58.7599 104.409 56.9522 104.409 54.9714C104.409 52.9905 103.985 51.2077 103.137 49.6228C102.289 47.9885 101.092 46.7008 99.5453 45.7599C98.0487 44.7693 96.3276 44.2742 94.3819 44.2742C92.4861 44.2742 90.765 44.7693 89.2186 45.7599C87.7219 46.7505 86.5246 48.0628 85.6267 49.6971C84.7784 51.282 84.3545 53.0399 84.3545 54.9714ZM120.866 13.0742H127.826V70.5714H120.866V13.0742ZM152.438 71.4628L135.227 39.8171H143.458L155.132 64.2571L150.867 64.1085L161.567 39.8171H169.35L152.812 71.4628H152.438ZM190.48 71.3142C186.939 71.3142 183.895 70.6208 181.351 69.2342C178.807 67.7979 176.836 65.8665 175.439 63.4399C174.092 60.9636 173.419 58.1408 173.419 54.9714C173.419 51.9505 174.192 49.202 175.739 46.7256C177.285 44.2493 179.356 42.2685 181.95 40.7828C184.544 39.2971 187.437 38.5542 190.63 38.5542C194.721 38.5542 198.113 39.7428 200.807 42.1199C203.501 44.4971 205.322 47.7656 206.27 51.9256L180.752 60.8399L179.106 56.7542L200.059 49.1771L198.562 50.1428C197.964 48.5085 196.966 47.0971 195.569 45.9085C194.172 44.6705 192.351 44.0514 190.106 44.0514C188.211 44.0514 186.514 44.522 185.018 45.4628C183.521 46.3542 182.349 47.5922 181.501 49.1771C180.653 50.762 180.229 52.5693 180.229 54.5999C180.229 56.7293 180.678 58.6114 181.576 60.2456C182.474 61.8305 183.696 63.0934 185.242 64.0342C186.839 64.9256 188.635 65.3714 190.63 65.3714C191.977 65.3714 193.274 65.1236 194.521 64.6285C195.819 64.1334 197.016 63.4893 198.113 62.6971L201.331 67.8228C199.785 68.8628 198.038 69.7048 196.093 70.3485C194.197 70.9922 192.327 71.3142 190.48 71.3142Z" fill="#9E166A"/>
</g>
<defs>
<linearGradient id="paint0_linear_1336_20" x1="246.973" y1="43.9932" x2="274.983" y2="70.7982" gradientUnits="userSpaceOnUse">
<stop/>
<stop offset="0.706874" stop-color="#F1600A"/>
</linearGradient>
<linearGradient id="paint1_linear_1336_20" x1="141.478" y1="102.895" x2="339.548" y2="102.895" gradientUnits="userSpaceOnUse">
<stop stop-color="#F9CE34"/>
<stop offset="0.395" stop-color="#EE2A7B"/>
<stop offset="1" stop-color="#6228D7"/>
</linearGradient>
<linearGradient id="paint2_linear_1336_20" x1="241.331" y1="3.09473e-07" x2="241.331" y2="102.895" gradientUnits="userSpaceOnUse">
<stop stop-color="#921D65"/>
<stop offset="1" stop-color="#C50179"/>
</linearGradient>
<clipPath id="clip0_1336_20">
<rect width="333" height="104" fill="white"/>
</clipPath>
</defs>
</svg>
